<svg xmlns="http://www.w3.org/2000/svg" version="1.1"
    width="150" height="150"
    viewBox="0 0 300 300">

    <g transform="scale(1.4) translate(-55, -40)">
        <path fill="#287EFF" d="M211.9,68.8h-52.2v78.8h82.7V99.3C242.4,82.5,228.8,68.8,211.9,68.8z" />
        <path fill="#0258ED" d="M242.4,147.6h-82.7v81.2h52.2c16.8,0,30.5-13.7,30.5-30.5V147.6z" />
        <path fill="#0246CC" d="M159.7,68.8h-46.6c-16.8,0-30.5,13.7-30.5,30.5v99c0,16.8,13.7,30.5,30.5,30.5h46.6V68.8z" />

        <g>
            <path fill="#FFFFFF"
                d="M135.9,165.1h-22c-3.4,0-6.1-2.7-6.1-6.1v-22c0-3.4,2.7-6.1,6.1-6.1h22c3.4,0,6.1,2.7,6.1,6.1v22
                C142,162.4,139.2,165.1,135.9,165.1z"/>

            <path fill="#FFFFFF"
                d="M185,92.8h22c3.4,0,6.1,2.7,6.1,6.1v22c0,3.4-2.7,6.1-6.1,6.1h-22c-3.4,0-6.1-2.7-6.1-6.1v-22
                C178.9,95.5,181.7,92.8,185,92.8z"/>

            <path fill="#FFFFFF"
                d="M185,171h22c3.4,0,6.1,2.7,6.1,6.1v22c0,3.4-2.7,6.1-6.1,6.1h-22c-3.4,0-6.1-2.7-6.1-6.1v-22
                C178.9,173.7,181.7,171,185,171z"/>

            <rect x="120.7" y="127"
                  transform="matrix(0.8103 -0.586 0.586 0.8103 -46.1491 119.4718)"
                  fill="#FFFFFF" width="81.5" height="8.1"/>

            <rect x="156.3" y="125"
                  transform="matrix(0.6139 -0.7894 0.7894 0.6139 -68.8012 190.5198)"
                  fill="#FFFFFF" width="8.1" height="81.1"/>
        </g>
    </g>

</svg>
