<svg xmlns="http://www.w3.org/2000/svg" fill="none" viewBox="0 0 24 24" id="Candle--Streamline-Rounded-Material" height="24" width="24">
  <desc>
    Candle Streamline Icon: https://streamlinehq.com
  </desc>
  <path fill="#000000" d="M6 20.5004h12c0.425 0 0.78125 -0.14375 1.06875 -0.43125 0.2875 -0.2875 0.43125 -0.64375 0.43125 -1.06875v-0.5H4.5v0.475c0 0.43215 0.14375 0.7943 0.43125 1.0865 0.2875 0.29235 0.64375 0.4385 1.06875 0.4385Zm5.975 -12.5c-0.76665 0 -1.4125 -0.27085 -1.9375 -0.8125 -0.525 -0.5417 -0.7875 -1.19585 -0.7875 -1.9625 0 -0.80001 0.23335 -1.504175 0.7 -2.11251 0.46665 -0.608335 0.975 -1.154165 1.525 -1.6375 0.08415 -0.066665 0.1719 -0.116665 0.26325 -0.15 0.09115 -0.033335 0.1784 -0.05 0.26175 -0.05 0.08335 0 0.16665 0.016665 0.25 0.05 0.08335 0.033335 0.16665 0.091665 0.25 0.175 0.51665 0.516665 1.02085 1.066665 1.5125 1.65 0.49165 0.583335 0.7375 1.275 0.7375 2.07501 0 0.76665 -0.27085 1.4208 -0.8125 1.9625 -0.54165 0.54165 -1.19585 0.8125 -1.9625 0.8125Zm-1.5 9H13.5v-6.5h-3.025v6.5Zm1.525 -10.5c0.33335 0 0.625 -0.1157 0.875 -0.347 0.25 -0.2312 0.375 -0.51375 0.375 -0.84775 0 -0.43684 -0.1319 -0.817425 -0.39575 -1.14176 -0.264 -0.3245 -0.54875 -0.637335 -0.85425 -0.9385 -0.3055 0.301165 -0.59025 0.614 -0.85425 0.9385 -0.26385 0.324335 -0.39575 0.70492 -0.39575 1.14176 0 0.334 0.125 0.61655 0.375 0.84775 0.25 0.2313 0.54165 0.347 0.875 0.347Zm8.45 10.5c0.28335 0 0.52915 -0.1042 0.7375 -0.3125 0.20835 -0.20835 0.3125 -0.4542 0.3125 -0.7375 0 -0.28335 -0.10415 -0.525 -0.3125 -0.725 -0.20835 -0.2 -0.45415 -0.3 -0.7375 -0.3 -0.28335 0 -0.52915 0.1 -0.7375 0.3 -0.20835 0.2 -0.3125 0.44165 -0.3125 0.725 0 0.2833 0.10415 0.52915 0.3125 0.7375 0.20835 0.2083 0.45415 0.3125 0.7375 0.3125Zm-2.45 5H6c-0.83335 0 -1.541665 -0.2917 -2.125 -0.875 -0.583335 -0.58335 -0.875 -1.3 -0.875 -2.15v-1.225c0 -0.2125 0.071915 -0.3907 0.21575 -0.5345 0.143665 -0.1437 0.32175 -0.2155 0.53425 -0.2155h5.225v-6.5c0 -0.4125 0.1469 -0.7657 0.44075 -1.0595 0.29365 -0.2937 0.64675 -0.4405 1.05925 -0.4405H13.5c0.4125 0 0.76565 0.1468 1.0595 0.4405 0.29365 0.2938 0.4405 0.647 0.4405 1.0595v6.5h3.125c-0.08335 -0.1667 -0.14165 -0.3375 -0.175 -0.5125 -0.03335 -0.175 -0.05 -0.3542 -0.05 -0.5375 0 -0.704 0.25 -1.30085 0.75 -1.7905 0.5 -0.4897 1.1 -0.7345 1.8 -0.7345s1.3 0.2448 1.8 0.7345c0.5 0.48965 0.75 1.0865 0.75 1.7905 0 0.61665 -0.1875 1.15415 -0.5625 1.6125 -0.375 0.4583 -0.85415 0.75415 -1.4375 0.8875v0.55c0 0.8333 -0.29165 1.54165 -0.875 2.125 -0.58335 0.5833 -1.29165 0.875 -2.125 0.875Z" stroke-width="0.5"></path>
</svg>